<svg xmlns="http://www.w3.org/2000/svg" viewBox="0 0 64 64" role="img" aria-label="CooCom favicon">
  <defs>
    <clipPath id="panelClip">
      <rect x="5" y="5" width="54" height="54" rx="14" ry="14" />
    </clipPath>
  </defs>

  <rect x="8" y="9" width="50" height="50" rx="14" ry="14" fill="#9cb0c3" opacity="0.45" />
  <rect x="5" y="5" width="54" height="54" rx="14" ry="14" fill="#eef4f8" stroke="#223a56" stroke-width="4" />

  <g clip-path="url(#panelClip)">
    <rect x="5" y="5" width="27" height="54" fill="#dceee8" />
    <rect x="32" y="5" width="27" height="54" fill="#efe4d8" />
    <rect x="30.5" y="5" width="3" height="54" fill="#223a56" opacity="0.9" />
  </g>

  <path
    d="M27 21.5c-2.2-2.2-5-3.3-8.3-3.3-7 0-12.2 5.2-12.2 13.8 0 8.7 5.4 13.8 12.1 13.8 3.5 0 6.3-1.1 8.4-3.4"
    fill="none"
    stroke="#1b7f77"
    stroke-linecap="round"
    stroke-width="6"
  />
  <path
    d="M37 21.5c2.2-2.2 5-3.3 8.3-3.3 7 0 12.2 5.2 12.2 13.8 0 8.7-5.4 13.8-12.1 13.8-3.5 0-6.3-1.1-8.4-3.4"
    fill="none"
    stroke="#a76434"
    stroke-linecap="round"
    stroke-width="6"
  />

  <circle cx="23" cy="32" r="3.1" fill="#223a56" />
  <circle cx="41" cy="32" r="3.1" fill="#223a56" />
</svg>
